<?xml version="1.0" encoding="UTF-8" standalone="no"?>
<!-- Created with Inkscape (http://www.inkscape.org/) -->

<svg
   xmlns:dc="http://purl.org/dc/elements/1.1/"
   xmlns:cc="http://creativecommons.org/ns#"
   xmlns:rdf="http://www.w3.org/1999/02/22-rdf-syntax-ns#"
   xmlns:svg="http://www.w3.org/2000/svg"
   xmlns="http://www.w3.org/2000/svg"
   xmlns:sodipodi="http://sodipodi.sourceforge.net/DTD/sodipodi-0.dtd"
   xmlns:inkscape="http://www.inkscape.org/namespaces/inkscape"
   width="100"
   height="100"
   viewBox="0 0 26.458333 26.458334"
   version="1.1"
   id="svg1481"
   inkscape:version="0.92.4 (unknown)"
   sodipodi:docname="company_logo.svg">
  <defs
     id="defs1475" />
  <sodipodi:namedview
     id="base"
     pagecolor="#ffffff"
     bordercolor="#666666"
     borderopacity="1.0"
     inkscape:pageopacity="0.0"
     inkscape:pageshadow="2"
     inkscape:zoom="4.6713242"
     inkscape:cx="134.02072"
     inkscape:cy="62.33996"
     inkscape:document-units="mm"
     inkscape:current-layer="layer1"
     showgrid="false"
     units="px"
     inkscape:window-width="2493"
     inkscape:window-height="1385"
     inkscape:window-x="67"
     inkscape:window-y="27"
     inkscape:window-maximized="1" />
  <metadata
     id="metadata1478">
    <rdf:RDF>
      <cc:Work
         rdf:about="">
        <dc:format>image/svg+xml</dc:format>
        <dc:type
           rdf:resource="http://purl.org/dc/dcmitype/StillImage" />
        <dc:title></dc:title>
      </cc:Work>
    </rdf:RDF>
  </metadata>
  <g
     inkscape:label="Calque 1"
     inkscape:groupmode="layer"
     id="layer1"
     transform="translate(0,-270.54165)">
    <path
       style="display:inline;fill:#e6e6e6;fill-opacity:1;stroke-width:0.4381161"
       d="m 18.694144,296.94317 c 2.403017,-0.36584 4.878756,-1.70192 5.910519,-4.08946 -0.09983,-0.7216 -1.567708,-0.15499 -1.721911,-1.21457 -0.536655,-0.976 -1.607641,-2.77119 -0.07357,-3.36794 1.938688,-0.36243 -0.671002,-2.28921 0.943809,-2.78425 0.538201,-1.22592 1.521128,-2.17668 2.282173,-3.27907 0.568058,-0.83309 -0.772585,-2.76115 -0.362536,-2.93506 1.382573,0.28424 0.782915,-2.79841 -0.579284,-2.28562 -0.114795,1.35292 -0.547317,-1.12997 -1.105764,-1.41582 -0.911737,-0.12197 -0.235509,-1.26206 -1.143466,-1.57137 -0.750447,-0.92618 -0.280096,-2.71575 -1.07452,-3.2952 -1.411708,0.12215 0.324052,1.70037 0.213343,2.55769 0.168809,0.47055 0.501361,1.65684 -0.240781,0.73831 -2.432466,-2.66849 -6.146713,-3.94134 -9.631713,-3.29203 -3.418305,0.55875 -6.6382933,2.70422 -8.2065292,5.95784 -1.3068145,2.49665 -1.6719102,5.47484 -1.0213829,8.23351 0.058924,0.98874 -1.304541,-0.6633 -1.7038987,-0.95099 -0.33789581,-1.51457 -2.04657671,0.74506 -0.61605851,0.52516 0.85608851,0.58624 2.28910691,1.04839 2.12386461,2.25415 0.8376773,0.53263 0.5767042,1.89889 1.5013905,2.53317 0.1899088,0.57924 -0.6068359,-0.52346 -0.7507269,0.42282 -0.8148158,1.07595 1.6947871,2.44885 1.6370102,0.85434 0.8898727,0.86519 1.7856261,1.99338 3.1902499,1.64435 1.174503,0.24529 2.783778,-0.55563 3.665094,0.25531 0.345762,1.56701 1.86014,1.43132 2.805339,0.49675 0.736567,0.64717 1.620946,2.31371 1.203503,3.37553 -1.149821,0.68522 1.336508,0.66352 1.82908,0.68926 0.30936,-6.9e-4 0.620756,-0.009 0.926766,-0.0568 z m -1.004002,-0.63356 c -1.184939,-0.74496 -1.6323,-2.22852 -2.318706,-3.40347 0.01893,-0.66934 1.5354,0.35195 2.19842,0.16248 1.171211,0.13793 2.681578,-1.00544 3.16414,0.74349 1.034597,1.29833 -0.808864,2.49285 -1.924732,2.62753 -0.373341,0.0562 -0.775592,0.0508 -1.119122,-0.13003 z m -2.982499,-4.35537 c -2.083567,-1.02483 -3.590554,-3.00973 -4.565717,-5.12464 0.839251,-0.34027 2.436518,0.0174 2.738972,-1.45832 0.600593,-0.58504 1.752651,-0.92786 0.589585,-1.57353 -1.0881,-0.62535 -2.506568,-1.14637 -3.587108,-0.20064 -1.052631,0.289 -0.619264,1.70827 0.333687,0.955 0.765046,-1.09164 2.380202,-1.04342 3.323914,-0.261 -1.000935,0.65485 -2.056248,1.38607 -3.213006,1.76931 -0.833221,0.66628 -1.125287,-1.48408 -1.442293,-2.11531 0.08048,-1.00458 0.605657,-2.10897 1.451973,-2.85612 1.795995,-1.58847 4.128198,-2.50665 6.463341,-2.7551 0.674709,-0.29101 2.274642,0.72896 0.825064,0.87407 -1.473083,0.33811 -2.387501,1.81154 -2.288387,3.33722 -0.02277,0.54417 0.02881,2.46395 0.799181,1.94365 -1.1301,-1.58817 1.171932,-1.5797 2.127543,-1.84226 0.805851,-0.0874 1.126708,-2.03549 1.582424,-0.52119 1.249426,2.62824 2.032491,5.95631 0.524569,8.64352 -0.963828,1.77429 -3.234639,2.26087 -4.963703,1.49222 -0.238426,-0.0892 -0.471693,-0.1933 -0.700039,-0.30688 z m 3.033174,-1.76762 c 1.26793,-0.50071 1.936097,-2.03135 1.886709,-3.368 -0.285221,0.67183 -1.747258,0.85689 -2.599565,1.30888 -0.683324,0.49314 -1.661231,1.0441 -2.123965,1.5807 0.804995,0.47048 1.939406,0.81856 2.836821,0.47842 z m -0.567487,-1.32039 c 0.931941,-0.65915 0.06324,0.66009 -0.168335,0.16204 l 0.168335,-0.16207 z m -0.893006,-1.40634 c 0.289434,-0.91176 -1.607133,0.24606 -0.207851,0.14221 l 0.207877,-0.14218 z m 1.303691,-0.73205 c 0.816816,-0.98313 -1.244229,-0.41332 -0.416447,0.21435 l 0.195393,-0.0452 0.221049,-0.16918 z m -12.8789254,0.81939 c -0.4741857,-0.53803 -0.5686518,-1.17501 0.020232,-0.32459 0.5958369,0.87388 1.6085992,1.86451 2.0043794,2.6292 -0.7755034,-0.6591 -1.4050958,-1.49232 -2.0246116,-2.30461 z m 4.3539234,-1.09451 c -0.77499,-1.42219 -1.3266802,-2.988 -2.2305045,-4.3253 -0.758977,0.43776 -2.1270431,1.04649 -2.2755755,2.12896 0.3143327,0.3919 -0.6394955,0.45033 -0.6386478,0.72483 -0.1834991,-1.51917 -0.146286,-3.09137 0.087012,-4.60377 0.1599014,-1.07107 2.1448759,-0.88405 1.5511555,0.35447 0.02331,0.79851 0.064236,2.17664 0.7532665,1.16042 0.1456911,-0.23909 -0.1770625,-0.74905 0.6042218,-0.63748 0.4287097,0.23775 0.0012,0.71085 0.4522989,0.31191 0.3233096,1.1316 0.3089431,1.21967 0.7200581,2.17254 0.324665,1.40929 1.205314,2.63251 1.72105,3.91893 -0.360436,-0.27757 -0.500648,-0.8218 -0.744335,-1.20551 z m 12.960333,-1.12732 c 0.07524,-1.03479 0.607138,0.70194 0,0 z M 5.4251788,284.47373 c 0.4908812,0.049 1.1020005,1.70225 0.2603257,0.42004 l -0.1343458,-0.18549 -0.1259799,-0.23457 z m 16.1358992,-0.16341 c -0.289022,-1.18043 1.090381,1.20533 0.135685,0.22065 l -0.135607,-0.22065 z m -0.466012,-1.03172 c -0.507615,-0.79657 0.04196,-0.90994 0.282605,-0.10654 0.343515,0.68249 -0.06152,0.87617 -0.282605,0.10654 z m -5.341361,-0.97992 c 0.0936,-1.3644 1.330988,-1.91999 2.323545,-2.31279 0.365487,-1.64613 1.97963,1.74318 0.573142,1.15232 -0.927625,0.53745 -1.872563,1.29534 -2.885028,1.8085 -0.15894,-0.14376 -0.0065,-0.46846 -0.01169,-0.64803 z m -7.678669,-0.05 c -0.149335,-1.07646 1.643174,-1.48511 1.369484,-2.28463 0.5426973,0.74643 -1.067281,1.81663 -1.332519,2.64305 l -0.01751,-0.0643 -0.01946,-0.29414 z m 12.06815,-0.99349 c -0.580699,-1.4125 0.951824,1.03192 1.9e-4,0 z m 4.171776,-0.25904 c -0.52316,-1.58297 -1.286769,-3.11123 -1.683754,-4.72194 1.034045,0.0426 0.186208,0.94027 0.878152,1.43909 0.357985,1.19009 0.99395,2.51149 1.028474,3.67515 l -0.119349,-0.11523 -0.103626,-0.27706 z m -17.025444,0.16307 c -0.6328665,-0.66913 1.016601,0.12778 -3.6e-6,-10e-6 z m 2.722158,-1.54641 c 1.068968,-1.00659 0.258208,0.96479 -0.164061,0.3369 l 0.05773,-0.14803 z m -3.764967,-0.14575 c -1.1545228,0.0615 0.8334691,-2.7798 9.677e-4,-1.02161 -0.4564622,0.17998 0.5935042,1.67191 -9.677e-4,1.02161 z m 5.438055,-0.94046 c 0.582985,-0.25451 1.321534,-0.22321 0.340293,0.18603 -0.09623,0.0542 -0.457649,0.0115 -0.340293,-0.18603 z m -1.174277,-0.35833 c 0.537484,-0.54342 0.656835,0.70987 0,0 z m -0.717871,-0.62346 c -0.389368,-0.63303 -1.406379,-2.38043 -1.1913,-2.51624 0.620162,0.76694 0.834133,2.57152 2.135065,1.54215 1.237983,-0.69423 1.100757,0.89812 -0.0019,0.87546 -0.311187,0.26158 -0.622594,0.59391 -0.941887,0.0986 z m -2.7580415,-0.74904 c -0.5951565,-0.61683 1.5893465,0.35956 0.2529409,0.027 l -0.252936,-0.027 z m 4.8392535,-1.08934 c -0.575768,-0.87166 -0.964094,-3.54566 -2.38648,-2.31001 -1.122079,0.22639 -1.9419805,1.00543 -2.3456189,2.17777 -0.1458441,1.28999 -1.269722,-0.43368 -0.2014138,-0.73962 1.4030677,-1.47495 3.2955567,-2.70431 5.3499907,-2.64795 0.457781,0.29356 0.416201,1.36395 -0.24426,0.81253 -1.921514,-0.21424 -0.15976,1.84721 0.08611,2.76025 0.363986,0.53304 0.329646,1.14507 -0.110783,0.29552 l -0.08276,-0.17459 -0.06479,-0.17391 z m 6.659759,-0.37006 c -0.216886,-1.26285 -2.120906,-1.13675 -2.481369,-2.12577 0.161432,-1.90204 2.348685,-0.31549 3.221426,0.16914 0.573525,0.54005 2.173484,1.20383 1.956151,1.90629 -0.924155,-0.23374 -1.819791,-0.27372 -2.735297,0.22025 l -0.0058,-0.0333 0.04489,-0.1365 z"
       id="path4861"
       inkscape:connector-curvature="0" />
  </g>
</svg>
