<?xml version="1.0" encoding="UTF-8" standalone="no"?>
<!-- Created with Inkscape (http://www.inkscape.org/) -->

<svg
   xmlns:dc="http://purl.org/dc/elements/1.1/"
   xmlns:cc="http://creativecommons.org/ns#"
   xmlns:rdf="http://www.w3.org/1999/02/22-rdf-syntax-ns#"
   xmlns:svg="http://www.w3.org/2000/svg"
   xmlns="http://www.w3.org/2000/svg"
   xmlns:sodipodi="http://sodipodi.sourceforge.net/DTD/sodipodi-0.dtd"
   xmlns:inkscape="http://www.inkscape.org/namespaces/inkscape"
   width="100"
   height="100"
   viewBox="0 0 26.458333 26.458334"
   version="1.1"
   id="svg1481"
   inkscape:version="0.92.4 (unknown)"
   sodipodi:docname="company.svg">
  <defs
     id="defs1475" />
  <sodipodi:namedview
     id="base"
     pagecolor="#ffffff"
     bordercolor="#666666"
     borderopacity="1.0"
     inkscape:pageopacity="0.0"
     inkscape:pageshadow="2"
     inkscape:zoom="2.7553514"
     inkscape:cx="356.8637"
     inkscape:cy="67.993011"
     inkscape:document-units="mm"
     inkscape:current-layer="layer1"
     showgrid="false"
     units="px"
     inkscape:window-width="2493"
     inkscape:window-height="1385"
     inkscape:window-x="67"
     inkscape:window-y="27"
     inkscape:window-maximized="1" />
  <metadata
     id="metadata1478">
    <rdf:RDF>
      <cc:Work
         rdf:about="">
        <dc:format>image/svg+xml</dc:format>
        <dc:type
           rdf:resource="http://purl.org/dc/dcmitype/StillImage" />
        <dc:title />
      </cc:Work>
    </rdf:RDF>
  </metadata>
  <g
     inkscape:label="Calque 1"
     inkscape:groupmode="layer"
     id="layer1"
     transform="translate(0,-270.54165)">
    <ellipse
       style="opacity:1;vector-effect:none;fill:#ffff00;fill-opacity:1;stroke:none;stroke-width:0.24473736px;stroke-linecap:butt;stroke-linejoin:miter;stroke-miterlimit:4;stroke-dasharray:none;stroke-dashoffset:0;stroke-opacity:1"
       id="path816"
       cx="13.395524"
       cy="283.84451"
       rx="13.395523"
       ry="13.251486" />
    <path
       style="display:inline;fill:#0000ff;fill-opacity:1;stroke-width:0.38405421"
       d="m 16.867483,295.70185 c 2.106493,-0.3207 4.276736,-1.49191 5.181183,-3.58484 -0.08751,-0.63256 -1.374259,-0.13587 -1.509433,-1.0647 -0.470434,-0.85556 -1.409265,-2.42923 -0.0645,-2.95234 1.699461,-0.31772 -0.588202,-2.00673 0.827347,-2.44069 0.471788,-1.07464 1.333426,-1.90808 2.000561,-2.87444 0.497962,-0.73029 -0.677251,-2.42044 -0.3178,-2.57289 1.211968,0.24916 0.686306,-2.45309 -0.507803,-2.00358 -0.10063,1.18597 -0.47978,-0.99054 -0.969317,-1.24111 -0.799232,-0.10692 -0.206448,-1.10633 -1.002366,-1.37748 -0.657845,-0.81189 -0.245533,-2.38063 -0.941929,-2.88858 -1.237509,0.10707 0.284065,1.49055 0.187018,2.24208 0.147978,0.41249 0.439495,1.45239 -0.21107,0.64721 -2.132309,-2.33921 -5.388232,-3.455 -8.443196,-2.88581 -2.9964987,0.48981 -5.8191526,2.37053 -7.1938741,5.22267 -1.1455586,2.18857 -1.4656028,4.79926 -0.8953482,7.21752 0.051653,0.86673 -1.1435655,-0.58145 -1.4936439,-0.83364 -0.2962008,-1.32768 -1.79403694,0.65312 -0.54003928,0.46036 0.75045048,0.5139 2.00663978,0.91902 1.86178778,1.976 0.7343111,0.4669 0.505541,1.66457 1.3161245,2.22058 0.1664748,0.50777 -0.5319546,-0.45887 -0.65809,0.37065 -0.7142706,0.94318 1.4856568,2.14667 1.4350093,0.74891 0.7800658,0.75843 1.5652867,1.74741 2.7965851,1.44145 1.0295738,0.21502 2.4402708,-0.48707 3.2128348,0.2238 0.303096,1.37365 1.630606,1.2547 2.459171,0.43546 0.645677,0.56731 1.420927,2.0282 1.054995,2.959 -1.007937,0.60066 1.171588,0.58165 1.603379,0.60421 0.271186,-6e-4 0.544157,-0.008 0.812406,-0.0498 z m -0.880112,-0.55539 c -1.038722,-0.65303 -1.43088,-1.95352 -2.032586,-2.98349 0.0166,-0.58675 1.345937,0.30852 1.927143,0.14243 1.026688,0.12091 2.350681,-0.88137 2.773697,0.65174 0.906932,1.13813 -0.709053,2.18525 -1.687227,2.30331 -0.327272,0.0493 -0.679888,0.0445 -0.981027,-0.11399 z m -2.61447,-3.81792 c -1.826462,-0.89838 -3.147493,-2.63834 -4.0023243,-4.49229 0.7356903,-0.29828 2.1358603,0.0152 2.4009933,-1.27836 0.526482,-0.51286 1.53638,-0.81337 0.516832,-1.37936 -0.953833,-0.54819 -2.197267,-1.00492 -3.1444721,-0.17589 -0.9227402,0.25334 -0.5428491,1.49748 0.2925113,0.83716 0.6706428,-0.95694 2.0864938,-0.91467 2.9137558,-0.2288 -0.877424,0.57405 -1.802516,1.21503 -2.8165334,1.55098 -0.7304047,0.58407 -0.9864309,-1.30094 -1.2643194,-1.85428 0.070549,-0.88062 0.5309211,-1.84873 1.2728049,-2.50368 1.5743759,-1.39246 3.6187939,-2.19735 5.6657889,-2.41513 0.591452,-0.25511 1.993959,0.639 0.723254,0.76621 -1.29131,0.29638 -2.092892,1.588 -2.006008,2.92542 -0.01996,0.47702 0.02526,2.1599 0.700565,1.70381 -0.99065,-1.3922 1.02732,-1.38477 1.865012,-1.61494 0.706412,-0.0766 0.987676,-1.78431 1.387159,-0.45687 1.095251,2.30393 1.781689,5.22132 0.459839,7.57694 -0.844896,1.55535 -2.835497,1.98189 -4.351201,1.30808 -0.209005,-0.0782 -0.413488,-0.16944 -0.613657,-0.269 z m 2.658892,-1.54951 c 1.111472,-0.43892 1.69719,-1.78069 1.653896,-2.9524 -0.250026,0.58892 -1.531653,0.75115 -2.278788,1.14737 -0.599004,0.43229 -1.456242,0.91526 -1.861876,1.38565 0.705662,0.41242 1.700091,0.71755 2.486768,0.41938 z m -0.497461,-1.15746 c 0.816943,-0.57781 0.05543,0.57864 -0.147563,0.14205 l 0.147563,-0.14207 z m -0.782813,-1.23281 c 0.253719,-0.79925 -1.408818,0.21571 -0.182202,0.12467 l 0.182225,-0.12464 z m 1.142821,-0.64171 c 0.716024,-0.86182 -1.090696,-0.36231 -0.365059,0.1879 l 0.171282,-0.0396 0.193773,-0.1483 z m -11.2897146,0.71828 c -0.415673,-0.47164 -0.4984823,-1.03002 0.017736,-0.28453 0.522313,0.76604 1.4101041,1.63443 1.7570466,2.30476 -0.6798092,-0.57777 -1.2317122,-1.30818 -1.7747826,-2.02023 z m 3.8166657,-0.95945 c -0.6793591,-1.24669 -1.1629728,-2.61929 -1.9552686,-3.79158 -0.6653222,0.38375 -1.8645741,0.91736 -1.9947782,1.86626 0.2755453,0.34354 -0.5605841,0.39476 -0.559841,0.63538 -0.160856,-1.3317 -0.1282348,-2.7099 0.076275,-4.03567 0.1401701,-0.93891 1.8802063,-0.77496 1.3597487,0.31073 0.020434,0.69997 0.05631,1.90804 0.6603163,1.01722 0.1277133,-0.20959 -0.1552137,-0.65662 0.529663,-0.55882 0.3758086,0.20842 0.00105,0.62314 0.396487,0.27343 0.2834144,0.99197 0.2708207,1.06917 0.6312056,1.90445 0.2846026,1.23539 1.0565828,2.30767 1.508679,3.43536 -0.3159596,-0.24333 -0.43887,-0.7204 -0.6524868,-1.05676 z m 11.3610769,-0.98822 c 0.06595,-0.9071 0.532219,0.61533 0,0 z M 5.2358583,284.77109 c 0.4303084,0.043 0.9660178,1.4922 0.2282025,0.36821 l -0.117768,-0.1626 -0.1104345,-0.20562 z m 14.1447897,-0.14325 c -0.253357,-1.03477 0.955832,1.0566 0.118942,0.19342 l -0.118873,-0.19342 z m -0.408507,-0.90441 c -0.444978,-0.69827 0.03678,-0.79766 0.247732,-0.0934 0.301126,0.59828 -0.05393,0.76806 -0.247732,0.0934 z m -4.682257,-0.859 c 0.08205,-1.19604 1.166748,-1.68307 2.036827,-2.0274 0.320388,-1.443 1.735351,1.52808 0.502419,1.01013 -0.813159,0.47113 -1.641496,1.1355 -2.529026,1.58534 -0.139328,-0.12602 -0.0057,-0.41066 -0.01025,-0.56807 z m -6.7311508,-0.0438 c -0.1309076,-0.94363 1.4404125,-1.30185 1.2004949,-2.00271 0.4757304,0.65432 -0.9355826,1.59246 -1.1680913,2.3169 l -0.015349,-0.0564 -0.017059,-0.25785 z m 10.5789858,-0.87089 c -0.509043,-1.23821 0.834372,0.90458 1.66e-4,0 z m 3.656994,-0.22708 c -0.458603,-1.38764 -1.127986,-2.72732 -1.475985,-4.13927 0.906448,0.0373 0.163231,0.82425 0.769791,1.26151 0.313812,1.04324 0.871301,2.20158 0.901565,3.22165 l -0.104622,-0.10101 -0.09084,-0.24287 z m -14.9245678,0.14295 c -0.5547733,-0.58656 0.8911562,0.11201 -3.3e-6,-1e-5 z m 2.3862539,-1.35559 c 0.9370609,-0.88239 0.2263461,0.84574 -0.1438165,0.29532 l 0.050607,-0.12976 z m -3.3003843,-0.12777 c -1.012059,0.0539 0.7306222,-2.43678 8.483e-4,-0.89554 -0.4001365,0.15777 0.5202681,1.4656 -8.483e-4,0.89554 z m 4.7670202,-0.82441 c 0.511046,-0.2231 1.158461,-0.19567 0.298301,0.16308 -0.08436,0.0475 -0.401176,0.0101 -0.298301,-0.16308 z m -1.0293763,-0.31411 c 0.4711603,-0.47637 0.5757833,0.62227 0,0 z m -0.6292884,-0.54656 c -0.3413215,-0.55492 -1.2328371,-2.08669 -1.0442981,-2.20574 0.5436364,0.6723 0.7312041,2.2542 1.871606,1.35185 1.0852208,-0.60856 0.9649268,0.7873 -0.00167,0.76744 -0.2727877,0.22929 -0.5457683,0.52062 -0.8256617,0.0864 z m -2.4177096,-0.65661 c -0.5217164,-0.54071 1.3932272,0.31519 0.221729,0.0236 l -0.2217247,-0.0236 z m 4.2421073,-0.95491 c -0.50472,-0.76411 -0.845127,-3.10815 -2.0919968,-2.02497 -0.9836187,0.19845 -1.7023474,0.88136 -2.0561784,1.90903 -0.1278474,1.13082 -1.1130431,-0.38016 -0.1765601,-0.64834 1.2299344,-1.29295 2.8888975,-2.37062 4.6898213,-2.32121 0.401293,0.25733 0.364844,1.19565 -0.214119,0.71227 -1.6844059,-0.18781 -0.140046,1.61927 0.07548,2.41965 0.319071,0.46726 0.288969,1.00377 -0.09711,0.25905 l -0.07255,-0.15305 -0.0568,-0.15244 z m 5.83797,-0.32441 c -0.190123,-1.10702 -1.859194,-0.99647 -2.175177,-1.86346 0.141511,-1.66733 2.058866,-0.27656 2.823914,0.14828 0.502754,0.47341 1.905284,1.05528 1.714769,1.67105 -0.810118,-0.2049 -1.595235,-0.23993 -2.397771,0.19308 l -0.0051,-0.0291 0.03936,-0.11966 z"
       id="path4861"
       inkscape:connector-curvature="0" />
  </g>
</svg>
